<svg width="202.08" height="24.352" viewBox="0 0 202.08 24.352" xmlns="http://www.w3.org/2000/svg"><g id="svgGroup" stroke-linecap="round" fill-rule="evenodd" font-size="9pt" stroke="#ffffff" stroke-width="0.25mm" fill="#ffffff" style="stroke:#ffffff;stroke-width:0.25mm;fill:#ffffff"><path d="M 183.2 20.064 L 183.2 19.456 L 187.008 19.456 L 187.008 19.936 A 0.613 0.613 0 0 0 187.06 20.19 A 0.596 0.596 0 0 0 187.184 20.368 A 0.586 0.586 0 0 0 187.608 20.544 A 0.742 0.742 0 0 0 187.616 20.544 L 197.632 20.544 A 0.613 0.613 0 0 0 197.886 20.492 A 0.596 0.596 0 0 0 198.064 20.368 A 0.586 0.586 0 0 0 198.24 19.944 A 0.742 0.742 0 0 0 198.24 19.936 L 198.24 17.568 A 0.535 0.535 0 0 0 198.111 17.219 A 0.726 0.726 0 0 0 198.064 17.168 A 0.586 0.586 0 0 0 197.64 16.992 A 0.742 0.742 0 0 0 197.632 16.992 L 187.488 16.992 Q 186.304 16.992 185.344 16.4 Q 184.384 15.808 183.792 14.848 Q 183.2 13.888 183.2 12.704 L 183.2 10.08 Q 183.2 8.896 183.792 7.936 Q 184.384 6.976 185.344 6.384 Q 186.304 5.792 187.488 5.792 L 197.76 5.792 A 4.271 4.271 0 0 1 199.163 6.018 A 3.882 3.882 0 0 1 199.936 6.384 Q 200.896 6.976 201.488 7.936 Q 202.08 8.896 202.08 10.08 L 202.08 10.688 L 198.24 10.688 L 198.24 10.208 A 0.613 0.613 0 0 0 198.188 9.954 A 0.596 0.596 0 0 0 198.064 9.776 A 0.586 0.586 0 0 0 197.64 9.6 A 0.742 0.742 0 0 0 197.632 9.6 L 187.616 9.6 A 0.613 0.613 0 0 0 187.362 9.652 A 0.596 0.596 0 0 0 187.184 9.776 A 0.586 0.586 0 0 0 187.008 10.2 A 0.742 0.742 0 0 0 187.008 10.208 L 187.008 12.576 A 0.535 0.535 0 0 0 187.137 12.925 A 0.726 0.726 0 0 0 187.184 12.976 A 0.586 0.586 0 0 0 187.608 13.152 A 0.742 0.742 0 0 0 187.616 13.152 L 197.76 13.152 A 4.271 4.271 0 0 1 199.163 13.378 A 3.882 3.882 0 0 1 199.936 13.744 Q 200.896 14.336 201.488 15.296 Q 202.08 16.256 202.08 17.44 L 202.08 20.064 Q 202.08 21.248 201.488 22.208 Q 200.896 23.168 199.936 23.76 Q 198.976 24.352 197.76 24.352 L 187.488 24.352 Q 186.304 24.352 185.344 23.76 Q 184.384 23.168 183.792 22.208 Q 183.2 21.248 183.2 20.064 Z M 52.448 24.352 L 48.64 24.352 L 48.64 5.792 L 63.232 5.792 Q 64.384 5.792 65.36 6.384 Q 66.336 6.976 66.912 7.936 A 4.071 4.071 0 0 1 67.487 10.006 A 4.826 4.826 0 0 1 67.488 10.08 L 67.488 24.352 L 63.68 24.352 L 63.68 10.208 A 0.613 0.613 0 0 0 63.628 9.954 A 0.596 0.596 0 0 0 63.504 9.776 Q 63.328 9.6 63.104 9.6 L 53.056 9.6 Q 52.832 9.6 52.64 9.776 A 0.588 0.588 0 0 0 52.492 9.982 A 0.577 0.577 0 0 0 52.448 10.208 L 52.448 24.352 Z M 180.672 24.352 L 166.112 24.352 Q 164.928 24.352 163.952 23.76 Q 162.976 23.168 162.4 22.208 A 4.071 4.071 0 0 1 161.825 20.138 A 4.826 4.826 0 0 1 161.824 20.064 L 161.824 13.152 L 176.864 13.152 L 176.864 10.208 A 0.613 0.613 0 0 0 176.812 9.954 A 0.596 0.596 0 0 0 176.688 9.776 A 0.586 0.586 0 0 0 176.264 9.6 A 0.742 0.742 0 0 0 176.256 9.6 L 161.824 9.6 L 161.824 5.792 L 176.384 5.792 A 4.271 4.271 0 0 1 177.787 6.018 A 3.882 3.882 0 0 1 178.56 6.384 Q 179.52 6.976 180.096 7.936 A 4.071 4.071 0 0 1 180.671 10.006 A 4.826 4.826 0 0 1 180.672 10.08 L 180.672 24.352 Z M 26.304 20.064 L 26.304 5.792 L 30.112 5.792 L 30.112 19.936 A 0.613 0.613 0 0 0 30.164 20.19 A 0.596 0.596 0 0 0 30.288 20.368 A 0.586 0.586 0 0 0 30.712 20.544 A 0.742 0.742 0 0 0 30.72 20.544 L 40.736 20.544 A 0.613 0.613 0 0 0 40.99 20.492 A 0.596 0.596 0 0 0 41.168 20.368 A 0.586 0.586 0 0 0 41.344 19.944 A 0.742 0.742 0 0 0 41.344 19.936 L 41.344 5.792 L 45.152 5.792 L 45.152 20.064 Q 45.152 21.248 44.576 22.208 Q 44 23.168 43.04 23.76 Q 42.08 24.352 40.864 24.352 L 30.592 24.352 Q 29.408 24.352 28.432 23.76 Q 27.456 23.168 26.88 22.208 A 4.071 4.071 0 0 1 26.305 20.138 A 4.826 4.826 0 0 1 26.304 20.064 Z M 70.304 20.064 L 70.304 10.08 Q 70.304 8.896 70.896 7.936 Q 71.488 6.976 72.448 6.384 Q 73.408 5.792 74.592 5.792 L 84.864 5.792 A 4.271 4.271 0 0 1 86.267 6.018 A 3.882 3.882 0 0 1 87.04 6.384 Q 88 6.976 88.576 7.936 A 4.071 4.071 0 0 1 89.151 10.006 A 4.826 4.826 0 0 1 89.152 10.08 L 89.152 16.992 L 74.112 16.992 L 74.112 19.936 A 0.613 0.613 0 0 0 74.164 20.19 A 0.596 0.596 0 0 0 74.288 20.368 A 0.586 0.586 0 0 0 74.712 20.544 A 0.742 0.742 0 0 0 74.72 20.544 L 89.152 20.544 L 89.152 24.352 L 74.592 24.352 Q 73.408 24.352 72.448 23.76 Q 71.488 23.168 70.896 22.208 Q 70.304 21.248 70.304 20.064 Z M 106.272 20.064 L 106.272 10.08 Q 106.272 8.896 106.864 7.936 Q 107.456 6.976 108.416 6.384 Q 109.376 5.792 110.56 5.792 L 120.832 5.792 A 4.271 4.271 0 0 1 122.235 6.018 A 3.882 3.882 0 0 1 123.008 6.384 Q 123.968 6.976 124.544 7.936 A 4.071 4.071 0 0 1 125.119 10.006 A 4.826 4.826 0 0 1 125.12 10.08 L 125.12 16.992 L 110.08 16.992 L 110.08 19.936 A 0.613 0.613 0 0 0 110.132 20.19 A 0.596 0.596 0 0 0 110.256 20.368 A 0.586 0.586 0 0 0 110.68 20.544 A 0.742 0.742 0 0 0 110.688 20.544 L 125.12 20.544 L 125.12 24.352 L 110.56 24.352 Q 109.376 24.352 108.416 23.76 Q 107.456 23.168 106.864 22.208 Q 106.272 21.248 106.272 20.064 Z M 3.84 24.352 L 0 24.352 L 0 1.344 L 18.72 1.344 Q 19.904 1.344 20.88 1.936 Q 21.856 2.528 22.448 3.504 Q 23.04 4.48 23.04 5.664 L 23.04 12 Q 23.04 13.152 22.448 14.144 Q 21.856 15.136 20.88 15.712 Q 19.904 16.288 18.72 16.288 L 3.84 16.32 L 3.84 24.352 Z M 92.512 20.064 L 92.512 0 L 96.32 0 L 96.32 5.792 L 103.744 5.792 L 103.744 9.6 L 96.32 9.6 L 96.32 19.936 A 0.613 0.613 0 0 0 96.372 20.19 A 0.596 0.596 0 0 0 96.496 20.368 A 0.586 0.586 0 0 0 96.92 20.544 A 0.742 0.742 0 0 0 96.928 20.544 L 103.744 20.544 L 103.744 24.352 L 96.8 24.352 Q 95.616 24.352 94.64 23.76 Q 93.664 23.168 93.088 22.208 A 4.071 4.071 0 0 1 92.513 20.138 A 4.826 4.826 0 0 1 92.512 20.064 Z M 132.064 24.352 L 128.256 24.352 L 128.256 10.08 Q 128.256 8.896 128.848 7.936 Q 129.44 6.976 130.416 6.384 Q 131.392 5.792 132.544 5.792 L 142.88 5.792 L 142.88 9.6 L 132.672 9.6 A 0.613 0.613 0 0 0 132.418 9.652 A 0.596 0.596 0 0 0 132.24 9.776 A 0.586 0.586 0 0 0 132.064 10.2 A 0.742 0.742 0 0 0 132.064 10.208 L 132.064 24.352 Z M 148.672 24.352 L 144.864 24.352 L 144.864 10.08 Q 144.864 8.896 145.456 7.936 Q 146.048 6.976 147.024 6.384 Q 148 5.792 149.152 5.792 L 159.488 5.792 L 159.488 9.6 L 149.28 9.6 A 0.613 0.613 0 0 0 149.026 9.652 A 0.596 0.596 0 0 0 148.848 9.776 A 0.586 0.586 0 0 0 148.672 10.2 A 0.742 0.742 0 0 0 148.672 10.208 L 148.672 24.352 Z M 4.416 12.416 L 18.56 12.416 A 0.678 0.678 0 0 0 18.789 12.378 A 0.598 0.598 0 0 0 18.992 12.256 A 0.529 0.529 0 0 0 19.167 11.874 A 0.718 0.718 0 0 0 19.168 11.84 L 19.168 5.76 A 0.535 0.535 0 0 0 19.039 5.411 A 0.726 0.726 0 0 0 18.992 5.36 A 0.586 0.586 0 0 0 18.568 5.184 A 0.742 0.742 0 0 0 18.56 5.184 L 4.416 5.184 A 0.535 0.535 0 0 0 4.067 5.313 A 0.726 0.726 0 0 0 4.016 5.36 Q 3.84 5.536 3.84 5.76 L 3.84 11.84 A 0.605 0.605 0 0 0 3.872 12.042 A 0.518 0.518 0 0 0 4.016 12.256 A 0.622 0.622 0 0 0 4.207 12.377 A 0.566 0.566 0 0 0 4.416 12.416 Z M 22.944 24.352 L 18.624 24.352 L 11.552 15.904 L 16.576 15.904 L 22.944 23.456 L 22.944 24.352 Z M 166.24 20.544 L 176.864 20.544 L 176.864 16.64 L 165.632 16.64 L 165.632 19.936 A 0.613 0.613 0 0 0 165.684 20.19 A 0.596 0.596 0 0 0 165.808 20.368 A 0.586 0.586 0 0 0 166.232 20.544 A 0.742 0.742 0 0 0 166.24 20.544 Z M 74.112 10.208 L 74.112 13.504 L 85.344 13.504 L 85.344 10.208 A 0.613 0.613 0 0 0 85.292 9.954 A 0.596 0.596 0 0 0 85.168 9.776 A 0.586 0.586 0 0 0 84.744 9.6 A 0.742 0.742 0 0 0 84.736 9.6 L 74.72 9.6 A 0.613 0.613 0 0 0 74.466 9.652 A 0.596 0.596 0 0 0 74.288 9.776 A 0.586 0.586 0 0 0 74.112 10.2 A 0.742 0.742 0 0 0 74.112 10.208 Z M 110.08 10.208 L 110.08 13.504 L 121.312 13.504 L 121.312 10.208 A 0.613 0.613 0 0 0 121.26 9.954 A 0.596 0.596 0 0 0 121.136 9.776 A 0.586 0.586 0 0 0 120.712 9.6 A 0.742 0.742 0 0 0 120.704 9.6 L 110.688 9.6 A 0.613 0.613 0 0 0 110.434 9.652 A 0.596 0.596 0 0 0 110.256 9.776 A 0.586 0.586 0 0 0 110.08 10.2 A 0.742 0.742 0 0 0 110.08 10.208 Z"/></g></svg>